<svg xmlns="http://www.w3.org/2000/svg" width="102.6" height="90.136" viewBox="0 0 102.6 90.136">
  <g id="Group_2" data-name="Group 2" transform="translate(385 -152)">
    <g id="Group_1" data-name="Group 1" transform="translate(-385 152)">
      <path id="Path_1" data-name="Path 1" d="M233.213,162.7c-8.134,0-16.128.526-22.719,6A9.757,9.757,0,0,0,208,172.377a36.5,36.5,0,0,0,16.479-3.085c-1.192,1.893-2.069,3.331-3.015,4.873,1.017.6,1.963,1.122,2.84,1.613-.7,1.122-1.893,2.139-1.788,3.085,0,1.122,1.122,2.139,1.963,3.681-4.383-.771-8.239-2.419-12.692-.351,7.643,3.962,15.006,2.069,22.474,1.367a15.329,15.329,0,0,1-2.139,1.893c-9.607,7.117-20.09,10.2-31.905,7.047A31.014,31.014,0,0,1,192.929,189a2.792,2.792,0,0,0-3.261-.07c-3.787,2.244-3.681,2.139-2.419,6.276a32.357,32.357,0,0,1,1.543,7.538c.175,1.613.7,2.069,2.244,1.963,8.485-.175,16.969-.351,25.559-.526,3.331-.07,3.331,0,2.91,3.331-1.543,14.235-8.309,25.314-20.23,33.027-22.649,14.515-51.995,6.521-63.32-16.829a43.08,43.08,0,0,1,33.728-61.426,46.22,46.22,0,0,1,19.564,1.788,5.2,5.2,0,0,0,5.154-.841c7.713-5.575,16.373-6.451,25.384-4.8,3.857.7,7.643,1.788,11.395,2.84a10.447,10.447,0,0,1,2.139.841A1.265,1.265,0,0,1,233.213,162.7Zm-13.639-1.718c0-.175.07-.245.07-.421h-7.222c-7.468,0-13.989,2.244-18.617,8.415a9.547,9.547,0,0,1-9.852,4.1,9.3,9.3,0,0,0-4.383.526,37.13,37.13,0,0,0-5.925,2.91c-1.017.6-1.788,1.473-2.84,2.244.526.421.6.6.771.6a12.662,12.662,0,0,0,1.718.245c8.309.245,15.777,3.191,22.579,7.889a19.262,19.262,0,0,0,3.681,2.069c7.468,2.665,14.936,1.367,22.4-.526.771-.175,1.3-1.122,2.314-2.069-1.3-.175-1.893-.245-2.419-.351-3.857-.841-7.819-1.543-11.675-2.559-.841-.245-2.069-1.613-1.963-2.314.07-.841,1.367-1.788,2.314-2.069a35.1,35.1,0,0,1,6.1-.947c1.718-.175,3.436,0,3.191-2.489-1.367-2.489-3.787-2.139-6.1-1.718a3.6,3.6,0,0,1-.841.175c-1.963,0-4.032.175-6,0-1.543-.175-2.314-.947-1.893-2.84a10.128,10.128,0,0,1,4.979-6.7C213.053,163.717,216.314,162.419,219.575,160.982Zm-67.842,44.071h8.905c1.192,0,1.473-.7,1.613-1.788a55.61,55.61,0,0,1,1.718-8.59c1.3-4.383,1.473-4.277-2.735-6.346a2.507,2.507,0,0,0-2.069.175C154.467,193.062,152.328,198.532,151.732,205.053ZM157.2,206.7h-3.611c-1.3-.07-1.788.421-1.543,1.788a24.216,24.216,0,0,0,4.277,10.378c2.665,3.506,2.735,3.611,6.346,1.192.526-.351,1.122-.7,1.613-1.017a1.638,1.638,0,0,0,.771-2.314,48.054,48.054,0,0,1-1.788-5.5C161.935,206.7,162.005,206.7,157.2,206.7Zm17.951-7.538h0c-.07-1.543.07-3.015-.07-4.453a2.306,2.306,0,0,0-1.473-1.543c-1.613-.421-3.436-.526-5.049-1.017-1.3-.351-1.963,0-2.244,1.122-.841,3.331-1.613,6.591-2.419,9.957-.351,1.367.245,1.963,1.718,1.893,2.419-.07,4.873-.07,7.293.07,1.788.07,2.419-.7,2.244-2.419C175.048,201.547,175.153,200.355,175.153,199.163Zm6.241,5.89c1.367-.07,2.735-.175,4.032-.175,1.367,0,2.139-.421,1.788-2.069-.771-2.91-1.367-5.925-2.139-8.905-.421-1.788-1.473-2.314-3.331-1.613a12.008,12.008,0,0,1-3.331.7c-1.3.07-1.718.7-1.718,1.893v5.575C176.766,205.053,176.766,205.053,181.394,205.053ZM169.578,206.7h-4.032c-1.192,0-1.893.421-1.543,1.613.771,2.735,1.543,5.5,2.489,8.134.175.526,1.3.947,1.963.947,1.613-.175,3.191-.841,4.8-.947,1.613-.175,2.069-.841,1.963-2.314a14.045,14.045,0,0,1,0-1.718C175.223,206.7,175.223,206.7,169.578,206.7Zm27.943,8.415c-.175-.351-.351-.6-.526-.947h-7.819c-2.244,0-3.436.841-3.331,3.191.07,2.735,3.19,2.314,4.558,3.857a1.948,1.948,0,0,0,1.788.175C194.086,219.323,195.733,217.254,197.522,215.116ZM178.413,228.4c4.873-.7,8.835-2.244,12.271-5.82-1.788-1.122-3.331-2.069-4.873-2.91a1.586,1.586,0,0,0-1.473.421C182.445,222.654,180.622,225.213,178.413,228.4Zm-10.133-9.186c1.017,3.506,4.1,7.363,6.872,8.415v-4.873c0-5.82-.771-6.346-6.276-3.857C168.7,218.867,168.526,219.042,168.281,219.218ZM160.638,223a20.106,20.106,0,0,0,11.57,4.733c-1.3-1.788-2.419-3.191-3.436-4.733-2.559-3.857-2.665-3.857-6.521-1.3C161.83,222.058,161.409,222.408,160.638,223Zm7.468-32.361c1.963.421,3.857.841,5.75,1.122.351.07,1.192-.526,1.192-.841.07-2.665.07-5.329.07-8.064C172.488,183.877,169.122,187.558,168.106,190.643Zm8.66,36.112c.245.07.526.175.7.245a20.1,20.1,0,0,0,5.82-8.59c-1.893-.351-3.506-.771-5.154-.947-.421,0-1.3.771-1.3,1.192C176.7,221.462,176.766,224.126,176.766,226.756Zm-4.7-44c-2.489-.947-8.134,1.192-10.553,4.207A41.32,41.32,0,0,0,165.3,189.1a1.633,1.633,0,0,0,1.613-.526C168.7,186.716,170.35,184.753,172.067,182.755Zm11.219,7.293c-2.069-2.419-3.962-4.733-5.82-6.942a6.169,6.169,0,0,0-.7.421v3.787c-.07,4.979.771,5.5,5.5,3.611A6.79,6.79,0,0,1,183.287,190.047Zm-3.681-7.783a6.821,6.821,0,0,1-.175.7c1.613,2.069,3.191,4.1,4.873,6.1.245.351.947.7,1.192.6,1.473-.7,2.84-1.543,4.207-2.314a4.794,4.794,0,0,0-.07-1.017C186.3,184.893,182.936,183.526,179.606,182.264Zm5.925,32.08c-2.735,0-5.224,0-7.819.07-.351,0-.841.6-.841.947s.526.771.841.947c1.192.351,2.489.6,3.681.841C184.409,217.85,184.654,217.675,185.531,214.344Z" transform="translate(-131.666 -157.679)"/>
      <path id="Path_2" data-name="Path 2" d="M292.069,166.681c-3.191,1.473-6.521,2.665-9.607,4.383a9.89,9.89,0,0,0-4.979,6.7c-.421,1.893.351,2.665,1.893,2.84,1.963.175,3.962,0,6,0a2.41,2.41,0,0,0,.841-.175c2.314-.351,4.733-.771,6.1,1.718.245,2.489-1.473,2.314-3.191,2.489a29.867,29.867,0,0,0-6.1.947,3.7,3.7,0,0,0-2.314,2.069c-.07.7,1.122,2.069,1.963,2.314,3.857,1.017,7.818,1.788,11.675,2.559.526.07,1.122.175,2.419.351-1.017.947-1.613,1.893-2.314,2.069-7.363,1.788-14.831,3.085-22.4.526a15.255,15.255,0,0,1-3.681-2.069c-6.767-4.733-14.165-7.643-22.579-7.889a14.476,14.476,0,0,1-1.718-.245c-.07,0-.175-.175-.771-.6a16.986,16.986,0,0,1,2.84-2.244,37.132,37.132,0,0,1,5.925-2.91,9.3,9.3,0,0,1,4.383-.526,9.785,9.785,0,0,0,9.852-4.1c4.628-6.171,11.149-8.415,18.617-8.415h7.223A.481.481,0,0,0,292.069,166.681Z" transform="translate(-204.16 -163.377)" fill="#d19898"/>
    </g>
  </g>
</svg>
